<svg xmlns="http://www.w3.org/2000/svg" xmlns:xlink="http://www.w3.org/1999/xlink" aria-hidden="true" focusable="false" width="150" height="60" style="-ms-transform: rotate(360deg); -webkit-transform: rotate(360deg); transform: rotate(360deg);" preserveAspectRatio="xMidYMid meet" viewBox="0 0 32 32"><path d="M27.38 28h-6.762L24 21.236zM24 18a1 1 0 0 0-.895.553l-5 10A1 1 0 0 0 19 30h10a1 1 0 0 0 .921-1.39l-5.026-10.057A1 1 0 0 0 24 18z" fill="#578C8C"></path><path d="M18.746 22.8A9.999 9.999 0 1 1 14 4v10l6.097 6.097l1.22-2.44A2.985 2.985 0 0 1 24 16h1.82A11.993 11.993 0 1 0 14 26a11.934 11.934 0 0 0 3.394-.497z" fill="#578C8C"></path></svg>